<?xml version="1.0"?>
<svg xmlns="http://www.w3.org/2000/svg" xmlns:xlink="http://www.w3.org/1999/xlink" version="1.1" id="Capa_1" x="0px" y="0px" viewBox="0 0 512 512" style="enable-background:new 0 0 512 512;" xml:space="preserve" class=""><g><rect x="169.22" y="234.305" style="fill:#CCCCCC;" width="173.559" height="208.271" data-original="#CCCCCC" class=""/><g>
	<rect x="47.729" y="234.305" style="fill:#E6E6E6;" width="121.492" height="208.271" data-original="#E6E6E6" class=""/>
	<rect x="342.78" y="234.305" style="fill:#E6E6E6;" width="121.492" height="208.271" data-original="#E6E6E6" class=""/>
</g><rect x="247.322" y="43.39" style="fill:#C69C6D;" width="17.356" height="69.424" data-original="#C69C6D" class=""/><rect x="4.339" y="477.288" style="fill:#FFB200" width="503.322" height="34.712" data-original="#0071BC" class="" data-old_color="#FFBA00"/><rect x="30.373" y="442.576" style="fill:#FFE000" width="451.254" height="34.712" data-original="#29ABE2" class="active-path" data-old_color="#FFE800"/><polygon style="fill:#FFB200" points="65.085,164.881 256,86.78 446.915,164.881 " data-original="#0071BC" class="" data-old_color="#FFBA00"/><g>
	
		<rect x="95.253" y="82.235" transform="matrix(-0.9255 0.3788 -0.3788 -0.9255 335.2296 115.8776)" style="fill:#B3B3B3" width="121.928" height="17.356" data-original="#B3B3B3" class=""/>
	
		<rect x="64.428" y="116.167" transform="matrix(-0.9255 0.3788 -0.3788 -0.9255 188.3969 212.6279)" style="fill:#B3B3B3" width="17.712" height="17.356" data-original="#B3B3B3" class=""/>
</g><path style="fill:#FFB200" d="M256,347.119L256,347.119c28.759,0,52.068,23.309,52.068,52.068v43.39l0,0H203.932l0,0v-43.39  C203.932,370.428,227.241,347.119,256,347.119z" data-original="#0071BC" class="" data-old_color="#FFBA00"/><g>
	<rect x="264.678" y="399.186" style="fill:#FFE000" width="17.356" height="17.356" data-original="#29ABE2" class="active-path" data-old_color="#FFE800"/>
	<rect x="229.966" y="399.186" style="fill:#FFE000" width="17.356" height="17.356" data-original="#29ABE2" class="active-path" data-old_color="#FFE800"/>
</g><g>
	<rect x="82.441" y="269.017" style="fill:#B3B3B3" width="17.356" height="17.356" data-original="#B3B3B3" class=""/>
	<rect x="117.153" y="269.017" style="fill:#B3B3B3" width="17.356" height="17.356" data-original="#B3B3B3" class=""/>
	<rect x="82.441" y="303.729" style="fill:#B3B3B3" width="17.356" height="17.356" data-original="#B3B3B3" class=""/>
	<rect x="117.153" y="303.729" style="fill:#B3B3B3" width="17.356" height="17.356" data-original="#B3B3B3" class=""/>
	<rect x="212.61" y="269.017" style="fill:#B3B3B3" width="17.356" height="17.356" data-original="#B3B3B3" class=""/>
	<rect x="247.322" y="269.017" style="fill:#B3B3B3" width="17.356" height="17.356" data-original="#B3B3B3" class=""/>
	<rect x="282.034" y="269.017" style="fill:#B3B3B3" width="17.356" height="17.356" data-original="#B3B3B3" class=""/>
	<rect x="212.61" y="303.729" style="fill:#B3B3B3" width="17.356" height="17.356" data-original="#B3B3B3" class=""/>
	<rect x="247.322" y="303.729" style="fill:#B3B3B3" width="17.356" height="17.356" data-original="#B3B3B3" class=""/>
	<rect x="282.034" y="303.729" style="fill:#B3B3B3" width="17.356" height="17.356" data-original="#B3B3B3" class=""/>
	<rect x="82.441" y="355.797" style="fill:#B3B3B3" width="17.356" height="17.356" data-original="#B3B3B3" class=""/>
	<rect x="117.153" y="355.797" style="fill:#B3B3B3" width="17.356" height="17.356" data-original="#B3B3B3" class=""/>
	<rect x="82.441" y="390.508" style="fill:#B3B3B3" width="17.356" height="17.356" data-original="#B3B3B3" class=""/>
	<rect x="117.153" y="390.508" style="fill:#B3B3B3" width="17.356" height="17.356" data-original="#B3B3B3" class=""/>
	<rect x="412.203" y="269.017" style="fill:#B3B3B3" width="17.356" height="17.356" data-original="#B3B3B3" class=""/>
	<rect x="377.492" y="269.017" style="fill:#B3B3B3" width="17.356" height="17.356" data-original="#B3B3B3" class=""/>
	<rect x="412.203" y="303.729" style="fill:#B3B3B3" width="17.356" height="17.356" data-original="#B3B3B3" class=""/>
	<rect x="377.492" y="303.729" style="fill:#B3B3B3" width="17.356" height="17.356" data-original="#B3B3B3" class=""/>
	<rect x="412.203" y="355.797" style="fill:#B3B3B3" width="17.356" height="17.356" data-original="#B3B3B3" class=""/>
	<rect x="377.492" y="355.797" style="fill:#B3B3B3" width="17.356" height="17.356" data-original="#B3B3B3" class=""/>
	<rect x="412.203" y="390.508" style="fill:#B3B3B3" width="17.356" height="17.356" data-original="#B3B3B3" class=""/>
	<rect x="377.492" y="390.508" style="fill:#B3B3B3" width="17.356" height="17.356" data-original="#B3B3B3" class=""/>
</g><path style="fill:#FFB200" d="M325.424,52.068H256c-4.79,0-8.678-3.888-8.678-8.678V8.678C247.322,3.888,251.21,0,256,0h69.424  c4.79,0,8.678,3.888,8.678,8.678V43.39C334.102,48.18,330.214,52.068,325.424,52.068z" data-original="#0071BC" class="" data-old_color="#FFBA00"/><g>
	<rect x="490.305" y="286.373" style="fill:#B3B3B3" width="17.356" height="78.102" data-original="#B3B3B3" class=""/>
	<rect x="490.305" y="381.831" style="fill:#B3B3B3" width="17.356" height="17.356" data-original="#B3B3B3" class=""/>
</g><rect x="30.373" y="199.593" style="fill:#FFB200" width="451.254" height="34.712" data-original="#0071BC" class="" data-old_color="#FFBA00"/><rect x="47.729" y="164.881" style="fill:#FFE000" width="416.542" height="34.712" data-original="#29ABE2" class="active-path" data-old_color="#FFE800"/></g> </svg>
